REM DIRINDEX 1\2\5,1\2\6,1\2\7,1\2\8,1\3\9,1\3\10,1\3\11,1\4\12,1\4\13,1\4\14,1\4\15,1\4\16
REM DIRNAME cjc034,folder01,folder02,folder03,folder04,folder05,folder06,folder07,folder08,folder09,folder10,folder11,folder12,folder13,folder14,folder15
TITLE ""
FILE "1200_sec03_0863_0871.mp3" MP3
  TRACK 01 AUDIO
    TITLE "0:"
    INDEX 01 00:00:00
  TRACK 02 AUDIO
    TITLE "12:cjc034_07123"
    INDEX 01 00:00:17
  TRACK 03 AUDIO
    TITLE "0:"
    INDEX 01 00:01:17
  TRACK 04 AUDIO
    TITLE "13:cjc034_07124"
    INDEX 01 00:01:52
  TRACK 05 AUDIO
    TITLE "0:"
    INDEX 01 00:03:68
  TRACK 06 AUDIO
    TITLE "14:cjc034_07125"
    INDEX 01 00:04:27
  TRACK 07 AUDIO
    TITLE "0:"
    INDEX 01 00:05:28
  TRACK 08 AUDIO
    TITLE "15:cjc034_07126"
    INDEX 01 00:05:61
  TRACK 09 AUDIO
    TITLE "0:"
    INDEX 01 00:10:27
  TRACK 10 AUDIO
    TITLE "12:cjc034_07127"
    INDEX 01 00:11:60
  TRACK 11 AUDIO
    TITLE "0:"
    INDEX 01 00:12:73
  TRACK 12 AUDIO
    TITLE "13:cjc034_07128"
    INDEX 01 00:13:35
  TRACK 13 AUDIO
    TITLE "0:"
    INDEX 01 00:15:19
  TRACK 14 AUDIO
    TITLE "14:cjc034_07129"
    INDEX 01 00:15:52
  TRACK 15 AUDIO
    TITLE "0:"
    INDEX 01 00:16:65
  TRACK 16 AUDIO
    TITLE "15:cjc034_07130"
    INDEX 01 00:17:23
  TRACK 17 AUDIO
    TITLE "0:"
    INDEX 01 00:21:49
  TRACK 18 AUDIO
    TITLE "12:cjc034_07131"
    INDEX 01 00:23:10
  TRACK 19 AUDIO
    TITLE "0:"
    INDEX 01 00:24:18
  TRACK 20 AUDIO
    TITLE "13:cjc034_07132"
    INDEX 01 00:24:51
  TRACK 21 AUDIO
    TITLE "0:"
    INDEX 01 00:25:33
  TRACK 22 AUDIO
    TITLE "14:cjc034_07133"
    INDEX 01 00:25:68
  TRACK 23 AUDIO
    TITLE "0:"
    INDEX 01 00:27:00
  TRACK 24 AUDIO
    TITLE "15:cjc034_07134"
    INDEX 01 00:27:36
  TRACK 25 AUDIO
    TITLE "0:"
    INDEX 01 00:30:38
  TRACK 26 AUDIO
    TITLE "12:cjc034_07135"
    INDEX 01 00:31:69
  TRACK 27 AUDIO
    TITLE "0:"
    INDEX 01 00:33:01
  TRACK 28 AUDIO
    TITLE "13:cjc034_07136"
    INDEX 01 00:33:38
  TRACK 29 AUDIO
    TITLE "0:"
    INDEX 01 00:35:39
  TRACK 30 AUDIO
    TITLE "14:cjc034_07137"
    INDEX 01 00:35:72
  TRACK 31 AUDIO
    TITLE "0:"
    INDEX 01 00:37:03
  TRACK 32 AUDIO
    TITLE "15:cjc034_07138"
    INDEX 01 00:37:42
  TRACK 33 AUDIO
    TITLE "0:"
    INDEX 01 00:41:59
  TRACK 34 AUDIO
    TITLE "12:cjc034_07139"
    INDEX 01 00:43:17
  TRACK 35 AUDIO
    TITLE "0:"
    INDEX 01 00:44:32
  TRACK 36 AUDIO
    TITLE "13:cjc034_07140"
    INDEX 01 00:44:65
  TRACK 37 AUDIO
    TITLE "0:"
    INDEX 01 00:45:59
  TRACK 38 AUDIO
    TITLE "14:cjc034_07141"
    INDEX 01 00:46:13
  TRACK 39 AUDIO
    TITLE "0:"
    INDEX 01 00:47:30
  TRACK 40 AUDIO
    TITLE "15:cjc034_07142"
    INDEX 01 00:47:64
  TRACK 41 AUDIO
    TITLE "0:"
    INDEX 01 00:50:54
  TRACK 42 AUDIO
    TITLE "12:cjc034_07143"
    INDEX 01 00:52:12
  TRACK 43 AUDIO
    TITLE "0:"
    INDEX 01 00:53:04
  TRACK 44 AUDIO
    TITLE "13:cjc034_07144"
    INDEX 01 00:53:53
  TRACK 45 AUDIO
    TITLE "0:"
    INDEX 01 00:54:34
  TRACK 46 AUDIO
    TITLE "14:cjc034_07145"
    INDEX 01 00:54:66
  TRACK 47 AUDIO
    TITLE "0:"
    INDEX 01 00:55:59
  TRACK 48 AUDIO
    TITLE "15:cjc034_07146"
    INDEX 01 00:56:39
  TRACK 49 AUDIO
    TITLE "0:"
    INDEX 01 01:00:27
  TRACK 50 AUDIO
    TITLE "12:cjc034_07147"
    INDEX 01 01:01:60
  TRACK 51 AUDIO
    TITLE "0:"
    INDEX 01 01:02:73
  TRACK 52 AUDIO
    TITLE "13:cjc034_07148"
    INDEX 01 01:03:31
  TRACK 53 AUDIO
    TITLE "0:"
    INDEX 01 01:04:21
  TRACK 54 AUDIO
    TITLE "14:cjc034_07149"
    INDEX 01 01:04:56
  TRACK 55 AUDIO
    TITLE "0:"
    INDEX 01 01:05:69
  TRACK 56 AUDIO
    TITLE "15:cjc034_07150"
    INDEX 01 01:06:28
  TRACK 57 AUDIO
    TITLE "0:"
    INDEX 01 01:10:12
  TRACK 58 AUDIO
    TITLE "16:cjc034_07151"
    INDEX 01 01:11:45
  TRACK 59 AUDIO
    TITLE "0:"
    INDEX 01 01:16:34
  TRACK 60 AUDIO
    TITLE "12:cjc034_07152"
    INDEX 01 01:17:43
  TRACK 61 AUDIO
    TITLE "0:"
    INDEX 01 01:18:58
  TRACK 62 AUDIO
    TITLE "13:cjc034_07153"
    INDEX 01 01:19:15
  TRACK 63 AUDIO
    TITLE "0:"
    INDEX 01 01:20:40
  TRACK 64 AUDIO
    TITLE "14:cjc034_07154"
    INDEX 01 01:21:06
  TRACK 65 AUDIO
    TITLE "0:"
    INDEX 01 01:22:21
  TRACK 66 AUDIO
    TITLE "15:cjc034_07155"
    INDEX 01 01:22:52
  TRACK 67 AUDIO
    TITLE "0:"
    INDEX 01 01:26:23
  TRACK 68 AUDIO
    TITLE "12:cjc034_07156"
    INDEX 01 01:27:53
  TRACK 69 AUDIO
    TITLE "0:"
    INDEX 01 01:28:72
  TRACK 70 AUDIO
    TITLE "13:cjc034_07157"
    INDEX 01 01:29:27
  TRACK 71 AUDIO
    TITLE "0:"
    INDEX 01 01:31:34
  TRACK 72 AUDIO
    TITLE "14:cjc034_07158"
    INDEX 01 01:31:69
  TRACK 73 AUDIO
    TITLE "0:"
    INDEX 01 01:33:13
  TRACK 74 AUDIO
    TITLE "15:cjc034_07159"
    INDEX 01 01:33:44
  TRACK 75 AUDIO
    TITLE "0:"
    INDEX 01 01:37:15
